 <svg width="258" className="m-0 " height="40" viewBox="0 0 258 40" fill="none" xmlns="http://www.w3.org/2000/svg">
                                    <path d="M17.3423 5.28977H15.2173C15.1567 4.94129 15.045 4.63258 14.8821 4.36364C14.7192 4.09091 14.5166 3.85985 14.2741 3.67045C14.0317 3.48106 13.7552 3.33901 13.4446 3.24432C13.1378 3.14583 12.8063 3.09659 12.4503 3.09659C11.8177 3.09659 11.2571 3.25568 10.7685 3.57386C10.2798 3.88826 9.89725 4.35038 9.62074 4.96023C9.34422 5.56629 9.20597 6.30682 9.20597 7.18182C9.20597 8.07197 9.34422 8.82197 9.62074 9.43182C9.90104 10.0379 10.2836 10.4962 10.7685 10.8068C11.2571 11.1136 11.8158 11.267 12.4446 11.267C12.7931 11.267 13.1188 11.2216 13.4219 11.1307C13.7287 11.036 14.0033 10.8977 14.2457 10.7159C14.492 10.5341 14.6984 10.3106 14.8651 10.0455C15.0355 9.7803 15.1529 9.47727 15.2173 9.13636L17.3423 9.14773C17.2628 9.70076 17.0904 10.2197 16.8253 10.7045C16.5639 11.1894 16.2211 11.6174 15.7969 11.9886C15.3726 12.3561 14.8764 12.6439 14.3082 12.8523C13.7401 13.0568 13.1094 13.1591 12.4162 13.1591C11.3935 13.1591 10.4806 12.9223 9.67756 12.4489C8.87453 11.9754 8.24195 11.2917 7.77983 10.3977C7.31771 9.50379 7.08665 8.43182 7.08665 7.18182C7.08665 5.92803 7.3196 4.85606 7.78551 3.96591C8.25142 3.07197 8.88589 2.38826 9.68892 1.91477C10.492 1.44129 11.401 1.20455 12.4162 1.20455C13.0639 1.20455 13.6662 1.29545 14.223 1.47727C14.7798 1.65909 15.276 1.92614 15.7116 2.27841C16.1473 2.62689 16.5052 3.05492 16.7855 3.5625C17.0696 4.06629 17.2552 4.64205 17.3423 5.28977ZM21.2386 1.36364V13H19.1818V1.36364H21.2386ZM23.3537 13V4.27273H25.4105V13H23.3537ZM24.3878 3.03409C24.062 3.03409 23.7817 2.92614 23.5469 2.71023C23.312 2.49053 23.1946 2.22727 23.1946 1.92045C23.1946 1.60985 23.312 1.34659 23.5469 1.13068C23.7817 0.910984 24.062 0.801136 24.3878 0.801136C24.7173 0.801136 24.9976 0.910984 25.2287 1.13068C25.4635 1.34659 25.581 1.60985 25.581 1.92045C25.581 2.22727 25.4635 2.49053 25.2287 2.71023C24.9976 2.92614 24.7173 3.03409 24.3878 3.03409ZM31.3324 13.1705C30.4612 13.1705 29.7131 12.9792 29.0881 12.5966C28.4669 12.214 27.9877 11.6856 27.6506 11.0114C27.3172 10.3333 27.1506 9.55303 27.1506 8.67045C27.1506 7.78409 27.321 7.00189 27.6619 6.32386C28.0028 5.64205 28.4839 5.11174 29.1051 4.73295C29.7301 4.35038 30.4688 4.15909 31.321 4.15909C32.0294 4.15909 32.6563 4.28977 33.2017 4.55114C33.7509 4.80871 34.1884 5.17424 34.5142 5.64773C34.84 6.11742 35.0256 6.66667 35.071 7.29545H33.1051C33.0256 6.875 32.8362 6.52462 32.5369 6.24432C32.2415 5.96023 31.8456 5.81818 31.3494 5.81818C30.929 5.81818 30.5597 5.93182 30.2415 6.15909C29.9233 6.38258 29.6752 6.70455 29.4972 7.125C29.3229 7.54545 29.2358 8.04924 29.2358 8.63636C29.2358 9.23106 29.3229 9.74242 29.4972 10.1705C29.6714 10.5947 29.9157 10.9223 30.2301 11.1534C30.5483 11.3807 30.9214 11.4943 31.3494 11.4943C31.6525 11.4943 31.9233 11.4375 32.1619 11.3239C32.4044 11.2064 32.607 11.0379 32.7699 10.8182C32.9328 10.5985 33.0445 10.3314 33.1051 10.017H35.071C35.0218 10.6345 34.84 11.1818 34.5256 11.6591C34.2112 12.1326 33.7831 12.5038 33.2415 12.7727C32.6998 13.0379 32.0634 13.1705 31.3324 13.1705ZM38.6349 10.2614L38.6293 7.77841H38.9588L42.0952 4.27273H44.4986L40.6406 8.56818H40.2145L38.6349 10.2614ZM36.7599 13V1.36364H38.8168V13H36.7599ZM42.2372 13L39.3963 9.02841L40.7827 7.57955L44.6974 13H42.2372ZM54.196 4.27273V5.86364H49.179V4.27273H54.196ZM50.4176 2.18182H52.4744V10.375C52.4744 10.6515 52.5161 10.8636 52.5994 11.0114C52.6866 11.1553 52.8002 11.2538 52.9403 11.3068C53.0805 11.3598 53.2358 11.3864 53.4062 11.3864C53.535 11.3864 53.6525 11.3769 53.7585 11.358C53.8684 11.339 53.9517 11.322 54.0085 11.3068L54.3551 12.9148C54.2453 12.9527 54.0881 12.9943 53.8835 13.0398C53.6828 13.0852 53.4366 13.1117 53.1449 13.1193C52.6297 13.1345 52.1657 13.0568 51.7528 12.8864C51.34 12.7121 51.0123 12.4432 50.7699 12.0795C50.5313 11.7159 50.4138 11.2614 50.4176 10.7159V2.18182ZM59.6293 13.1705C58.777 13.1705 58.0384 12.983 57.4134 12.608C56.7884 12.233 56.3035 11.7083 55.9588 11.0341C55.6179 10.3598 55.4474 9.57197 55.4474 8.67045C55.4474 7.76894 55.6179 6.97917 55.9588 6.30114C56.3035 5.62311 56.7884 5.09659 57.4134 4.72159C58.0384 4.34659 58.777 4.15909 59.6293 4.15909C60.4815 4.15909 61.2202 4.34659 61.8452 4.72159C62.4702 5.09659 62.9531 5.62311 63.294 6.30114C63.6387 6.97917 63.8111 7.76894 63.8111 8.67045C63.8111 9.57197 63.6387 10.3598 63.294 11.0341C62.9531 11.7083 62.4702 12.233 61.8452 12.608C61.2202 12.983 60.4815 13.1705 59.6293 13.1705ZM59.6406 11.5227C60.1027 11.5227 60.4891 11.3958 60.7997 11.142C61.1103 10.8845 61.3414 10.5398 61.4929 10.108C61.6482 9.67614 61.7259 9.19508 61.7259 8.66477C61.7259 8.13068 61.6482 7.64773 61.4929 7.21591C61.3414 6.7803 61.1103 6.43371 60.7997 6.17614C60.4891 5.91856 60.1027 5.78977 59.6406 5.78977C59.1671 5.78977 58.7732 5.91856 58.4588 6.17614C58.1482 6.43371 57.9152 6.7803 57.7599 7.21591C57.6084 7.64773 57.5327 8.13068 57.5327 8.66477C57.5327 9.19508 57.6084 9.67614 57.7599 10.108C57.9152 10.5398 58.1482 10.8845 58.4588 11.142C58.7732 11.3958 59.1671 11.5227 59.6406 11.5227ZM75.0881 9.32955V4.27273H77.1449V13H75.1506V11.4489H75.0597C74.8627 11.9375 74.5388 12.3371 74.0881 12.6477C73.6411 12.9583 73.09 13.1136 72.4347 13.1136C71.8627 13.1136 71.357 12.9867 70.9176 12.733C70.482 12.4754 70.1411 12.1023 69.8949 11.6136C69.6487 11.1212 69.5256 10.5265 69.5256 9.82955V4.27273H71.5824V9.51136C71.5824 10.0644 71.7339 10.5038 72.0369 10.8295C72.34 11.1553 72.7377 11.3182 73.2301 11.3182C73.5331 11.3182 73.8267 11.2443 74.1108 11.0966C74.3949 10.9489 74.6278 10.7292 74.8097 10.4375C74.9953 10.142 75.0881 9.77273 75.0881 9.32955ZM79.2599 16.2727V4.27273H81.2827V5.71591H81.402C81.508 5.50379 81.6577 5.27841 81.8509 5.03977C82.044 4.79735 82.3054 4.59091 82.6349 4.42045C82.9645 4.24621 83.3849 4.15909 83.8963 4.15909C84.5705 4.15909 85.1785 4.33144 85.7202 4.67614C86.2656 5.01705 86.6974 5.52273 87.0156 6.19318C87.3376 6.85985 87.4986 7.67803 87.4986 8.64773C87.4986 9.60606 87.3414 10.4205 87.027 11.0909C86.7126 11.7614 86.2846 12.2727 85.7429 12.625C85.2012 12.9773 84.5876 13.1534 83.902 13.1534C83.402 13.1534 82.9872 13.0701 82.6577 12.9034C82.3281 12.7367 82.063 12.536 81.8622 12.3011C81.6652 12.0625 81.5118 11.8371 81.402 11.625H81.3168V16.2727H79.2599ZM81.277 8.63636C81.277 9.20076 81.3565 9.69508 81.5156 10.1193C81.6785 10.5436 81.9115 10.875 82.2145 11.1136C82.5213 11.3485 82.8925 11.4659 83.3281 11.4659C83.7827 11.4659 84.1634 11.3447 84.4702 11.1023C84.777 10.8561 85.008 10.5208 85.1634 10.0966C85.3224 9.66856 85.402 9.18182 85.402 8.63636C85.402 8.0947 85.3243 7.61364 85.169 7.19318C85.0137 6.77273 84.7827 6.44318 84.4759 6.20455C84.169 5.96591 83.7865 5.84659 83.3281 5.84659C82.8887 5.84659 82.5156 5.96212 82.2088 6.19318C81.902 6.42424 81.669 6.74811 81.5099 7.16477C81.3546 7.58144 81.277 8.07197 81.277 8.63636ZM91.3168 1.36364V13H89.2599V1.36364H91.3168ZM97.2386 13.1705C96.3864 13.1705 95.6477 12.983 95.0227 12.608C94.3977 12.233 93.9129 11.7083 93.5682 11.0341C93.2273 10.3598 93.0568 9.57197 93.0568 8.67045C93.0568 7.76894 93.2273 6.97917 93.5682 6.30114C93.9129 5.62311 94.3977 5.09659 95.0227 4.72159C95.6477 4.34659 96.3864 4.15909 97.2386 4.15909C98.0909 4.15909 98.8295 4.34659 99.4545 4.72159C100.08 5.09659 100.563 5.62311 100.903 6.30114C101.248 6.97917 101.42 7.76894 101.42 8.67045C101.42 9.57197 101.248 10.3598 100.903 11.0341C100.563 11.7083 100.08 12.233 99.4545 12.608C98.8295 12.983 98.0909 13.1705 97.2386 13.1705ZM97.25 11.5227C97.7121 11.5227 98.0985 11.3958 98.4091 11.142C98.7197 10.8845 98.9508 10.5398 99.1023 10.108C99.2576 9.67614 99.3352 9.19508 99.3352 8.66477C99.3352 8.13068 99.2576 7.64773 99.1023 7.21591C98.9508 6.7803 98.7197 6.43371 98.4091 6.17614C98.0985 5.91856 97.7121 5.78977 97.25 5.78977C96.7765 5.78977 96.3826 5.91856 96.0682 6.17614C95.7576 6.43371 95.5246 6.7803 95.3693 7.21591C95.2178 7.64773 95.142 8.13068 95.142 8.66477C95.142 9.19508 95.2178 9.67614 95.3693 10.108C95.5246 10.5398 95.7576 10.8845 96.0682 11.142C96.3826 11.3958 96.7765 11.5227 97.25 11.5227ZM105.678 13.1761C105.125 13.1761 104.626 13.0777 104.183 12.8807C103.744 12.6799 103.395 12.3845 103.138 11.9943C102.884 11.6042 102.757 11.1231 102.757 10.5511C102.757 10.0587 102.848 9.65152 103.03 9.32955C103.212 9.00758 103.46 8.75 103.774 8.55682C104.089 8.36364 104.443 8.2178 104.837 8.11932C105.234 8.01705 105.645 7.94318 106.07 7.89773C106.581 7.8447 106.996 7.79735 107.314 7.75568C107.632 7.71023 107.863 7.64205 108.007 7.55114C108.155 7.45644 108.229 7.31061 108.229 7.11364V7.07955C108.229 6.65152 108.102 6.32008 107.848 6.08523C107.594 5.85038 107.229 5.73295 106.751 5.73295C106.248 5.73295 105.848 5.8428 105.553 6.0625C105.261 6.2822 105.064 6.54167 104.962 6.84091L103.041 6.56818C103.193 6.03788 103.443 5.5947 103.791 5.23864C104.14 4.87879 104.566 4.60985 105.07 4.43182C105.573 4.25 106.13 4.15909 106.74 4.15909C107.161 4.15909 107.579 4.20833 107.996 4.30682C108.412 4.4053 108.793 4.56818 109.138 4.79545C109.482 5.01894 109.759 5.32386 109.967 5.71023C110.179 6.09659 110.286 6.57955 110.286 7.15909V13H108.308V11.8011H108.24C108.115 12.0436 107.939 12.2708 107.712 12.483C107.488 12.6913 107.206 12.8598 106.865 12.9886C106.528 13.1136 106.132 13.1761 105.678 13.1761ZM106.212 11.6648C106.625 11.6648 106.982 11.5833 107.286 11.4205C107.589 11.2538 107.821 11.0341 107.984 10.7614C108.151 10.4886 108.234 10.1913 108.234 9.86932V8.84091C108.17 8.89394 108.06 8.94318 107.905 8.98864C107.753 9.03409 107.583 9.07386 107.393 9.10795C107.204 9.14205 107.017 9.17235 106.831 9.19886C106.645 9.22538 106.484 9.24811 106.348 9.26705C106.041 9.30871 105.767 9.37689 105.524 9.47159C105.282 9.56629 105.09 9.69886 104.95 9.86932C104.81 10.036 104.74 10.2519 104.74 10.517C104.74 10.8958 104.878 11.1818 105.155 11.375C105.431 11.5682 105.784 11.6648 106.212 11.6648ZM115.592 13.1534C114.907 13.1534 114.293 12.9773 113.751 12.625C113.21 12.2727 112.782 11.7614 112.467 11.0909C112.153 10.4205 111.996 9.60606 111.996 8.64773C111.996 7.67803 112.155 6.85985 112.473 6.19318C112.795 5.52273 113.229 5.01705 113.774 4.67614C114.32 4.33144 114.928 4.15909 115.598 4.15909C116.109 4.15909 116.53 4.24621 116.859 4.42045C117.189 4.59091 117.45 4.79735 117.643 5.03977C117.837 5.27841 117.986 5.50379 118.092 5.71591H118.178V1.36364H120.24V13H118.217V11.625H118.092C117.986 11.8371 117.833 12.0625 117.632 12.3011C117.431 12.536 117.166 12.7367 116.837 12.9034C116.507 13.0701 116.092 13.1534 115.592 13.1534ZM116.166 11.4659C116.602 11.4659 116.973 11.3485 117.28 11.1136C117.587 10.875 117.82 10.5436 117.979 10.1193C118.138 9.69508 118.217 9.20076 118.217 8.63636C118.217 8.07197 118.138 7.58144 117.979 7.16477C117.823 6.74811 117.592 6.42424 117.286 6.19318C116.982 5.96212 116.609 5.84659 116.166 5.84659C115.708 5.84659 115.325 5.96591 115.018 6.20455C114.712 6.44318 114.481 6.77273 114.325 7.19318C114.17 7.61364 114.092 8.0947 114.092 8.63636C114.092 9.18182 114.17 9.66856 114.325 10.0966C114.484 10.5208 114.717 10.8561 115.024 11.1023C115.335 11.3447 115.715 11.4659 116.166 11.4659Z" fill="#164C96" />
                                    <path d="M130.648 13.1818C129.86 13.1818 129.169 12.9943 128.574 12.6193C127.983 12.2443 127.521 11.7197 127.188 11.0455C126.858 10.3712 126.693 9.58333 126.693 8.68182C126.693 7.77273 126.858 6.97917 127.188 6.30114C127.521 5.62311 127.983 5.09659 128.574 4.72159C129.169 4.34659 129.86 4.15909 130.648 4.15909C131.436 4.15909 132.125 4.34659 132.716 4.72159C133.311 5.09659 133.773 5.62311 134.102 6.30114C134.436 6.97917 134.602 7.77273 134.602 8.68182C134.602 9.58333 134.436 10.3712 134.102 11.0455C133.773 11.7197 133.311 12.2443 132.716 12.6193C132.125 12.9943 131.436 13.1818 130.648 13.1818ZM130.648 11.9773C131.246 11.9773 131.739 11.8239 132.125 11.517C132.511 11.2102 132.797 10.8068 132.983 10.3068C133.169 9.80682 133.261 9.26515 133.261 8.68182C133.261 8.09848 133.169 7.55492 132.983 7.05114C132.797 6.54735 132.511 6.14015 132.125 5.82955C131.739 5.51894 131.246 5.36364 130.648 5.36364C130.049 5.36364 129.557 5.51894 129.17 5.82955C128.784 6.14015 128.498 6.54735 128.312 7.05114C128.127 7.55492 128.034 8.09848 128.034 8.68182C128.034 9.26515 128.127 9.80682 128.312 10.3068C128.498 10.8068 128.784 11.2102 129.17 11.517C129.557 11.8239 130.049 11.9773 130.648 11.9773ZM136.649 13V4.27273H137.945V5.59091H138.036C138.195 5.15909 138.482 4.80871 138.899 4.53977C139.316 4.27083 139.786 4.13636 140.308 4.13636C140.407 4.13636 140.53 4.13826 140.678 4.14205C140.825 4.14583 140.937 4.15152 141.013 4.15909V5.52273C140.967 5.51136 140.863 5.49432 140.7 5.47159C140.541 5.44508 140.373 5.43182 140.195 5.43182C139.77 5.43182 139.392 5.52083 139.058 5.69886C138.729 5.87311 138.467 6.11553 138.274 6.42614C138.085 6.73295 137.99 7.08333 137.99 7.47727V13H136.649ZM150.398 13.1818C149.67 13.1818 149.028 12.9981 148.472 12.6307C147.915 12.2595 147.479 11.7367 147.165 11.0625C146.85 10.3845 146.693 9.58333 146.693 8.65909C146.693 7.74242 146.85 6.94697 147.165 6.27273C147.479 5.59848 147.917 5.07765 148.477 4.71023C149.038 4.3428 149.686 4.15909 150.42 4.15909C150.989 4.15909 151.438 4.25379 151.767 4.44318C152.1 4.62879 152.354 4.84091 152.528 5.07955C152.706 5.31439 152.845 5.50758 152.943 5.65909H153.057V1.36364H154.398V13H153.102V11.6591H152.943C152.845 11.8182 152.705 12.0189 152.523 12.2614C152.341 12.5 152.081 12.714 151.744 12.9034C151.407 13.089 150.958 13.1818 150.398 13.1818ZM150.58 11.9773C151.117 11.9773 151.572 11.8371 151.943 11.5568C152.314 11.2727 152.597 10.8807 152.79 10.3807C152.983 9.87689 153.08 9.29545 153.08 8.63636C153.08 7.98485 152.985 7.41477 152.795 6.92614C152.606 6.43371 152.326 6.05114 151.955 5.77841C151.583 5.50189 151.125 5.36364 150.58 5.36364C150.011 5.36364 149.538 5.50947 149.159 5.80114C148.784 6.08902 148.502 6.48106 148.312 6.97727C148.127 7.4697 148.034 8.02273 148.034 8.63636C148.034 9.25758 148.129 9.82197 148.318 10.3295C148.511 10.8333 148.795 11.2348 149.17 11.5341C149.549 11.8295 150.019 11.9773 150.58 11.9773ZM157.04 13V4.27273H158.335V5.59091H158.426C158.585 5.15909 158.873 4.80871 159.29 4.53977C159.706 4.27083 160.176 4.13636 160.699 4.13636C160.797 4.13636 160.92 4.13826 161.068 4.14205C161.216 4.14583 161.328 4.15152 161.403 4.15909V5.52273C161.358 5.51136 161.254 5.49432 161.091 5.47159C160.932 5.44508 160.763 5.43182 160.585 5.43182C160.161 5.43182 159.782 5.52083 159.449 5.69886C159.119 5.87311 158.858 6.11553 158.665 6.42614C158.475 6.73295 158.381 7.08333 158.381 7.47727V13H157.04ZM165.561 13.2045C165.008 13.2045 164.506 13.1004 164.055 12.892C163.605 12.6799 163.247 12.375 162.982 11.9773C162.716 11.5758 162.584 11.0909 162.584 10.5227C162.584 10.0227 162.682 9.61742 162.879 9.30682C163.076 8.99242 163.339 8.74621 163.669 8.56818C163.999 8.39015 164.362 8.25758 164.76 8.17045C165.161 8.07955 165.565 8.00758 165.97 7.95455C166.5 7.88636 166.93 7.83523 167.26 7.80114C167.593 7.76326 167.836 7.70076 167.987 7.61364C168.143 7.52652 168.22 7.375 168.22 7.15909V7.11364C168.22 6.55303 168.067 6.11742 167.76 5.80682C167.457 5.49621 166.997 5.34091 166.379 5.34091C165.739 5.34091 165.237 5.48106 164.874 5.76136C164.51 6.04167 164.254 6.34091 164.107 6.65909L162.834 6.20455C163.061 5.67424 163.364 5.26136 163.743 4.96591C164.125 4.66667 164.542 4.45833 164.993 4.34091C165.447 4.2197 165.894 4.15909 166.334 4.15909C166.614 4.15909 166.936 4.19318 167.3 4.26136C167.667 4.32576 168.021 4.46023 168.362 4.66477C168.707 4.86932 168.993 5.17803 169.22 5.59091C169.447 6.00379 169.561 6.55682 169.561 7.25V13H168.22V11.8182H168.152C168.061 12.0076 167.91 12.2102 167.697 12.4261C167.485 12.642 167.203 12.8258 166.851 12.9773C166.499 13.1288 166.069 13.2045 165.561 13.2045ZM165.766 12C166.296 12 166.743 11.8958 167.107 11.6875C167.474 11.4792 167.75 11.2102 167.936 10.8807C168.125 10.5511 168.22 10.2045 168.22 9.84091V8.61364C168.163 8.68182 168.038 8.74432 167.845 8.80114C167.656 8.85417 167.436 8.90151 167.186 8.94318C166.94 8.98106 166.699 9.01515 166.464 9.04545C166.233 9.07197 166.046 9.0947 165.902 9.11364C165.554 9.15909 165.228 9.23295 164.925 9.33523C164.625 9.43371 164.383 9.58333 164.197 9.78409C164.016 9.98106 163.925 10.25 163.925 10.5909C163.925 11.0568 164.097 11.4091 164.442 11.6477C164.79 11.8826 165.232 12 165.766 12ZM175.531 16.4545C174.884 16.4545 174.327 16.3712 173.861 16.2045C173.395 16.0417 173.007 15.8258 172.696 15.5568C172.389 15.2917 172.145 15.0076 171.963 14.7045L173.031 13.9545C173.152 14.1136 173.306 14.2955 173.491 14.5C173.677 14.7083 173.931 14.8883 174.253 15.0398C174.579 15.1951 175.005 15.2727 175.531 15.2727C176.236 15.2727 176.817 15.1023 177.276 14.7614C177.734 14.4205 177.963 13.8864 177.963 13.1591V11.3864H177.849C177.751 11.5455 177.611 11.7424 177.429 11.9773C177.251 12.2083 176.993 12.4148 176.656 12.5966C176.323 12.7746 175.872 12.8636 175.304 12.8636C174.599 12.8636 173.967 12.697 173.406 12.3636C172.849 12.0303 172.408 11.5455 172.082 10.9091C171.76 10.2727 171.599 9.5 171.599 8.59091C171.599 7.69697 171.757 6.91856 172.071 6.25568C172.385 5.58901 172.823 5.07386 173.384 4.71023C173.944 4.3428 174.592 4.15909 175.327 4.15909C175.895 4.15909 176.346 4.25379 176.679 4.44318C177.016 4.62879 177.274 4.84091 177.452 5.07955C177.634 5.31439 177.774 5.50758 177.872 5.65909H178.009V4.27273H179.304V13.25C179.304 14 179.134 14.6098 178.793 15.0795C178.455 15.553 178.001 15.8996 177.429 16.1193C176.861 16.3428 176.228 16.4545 175.531 16.4545ZM175.486 11.6591C176.024 11.6591 176.478 11.536 176.849 11.2898C177.221 11.0436 177.503 10.6894 177.696 10.2273C177.889 9.76515 177.986 9.21212 177.986 8.56818C177.986 7.93939 177.891 7.38447 177.702 6.90341C177.512 6.42235 177.232 6.04545 176.861 5.77273C176.49 5.5 176.031 5.36364 175.486 5.36364C174.918 5.36364 174.444 5.50758 174.065 5.79545C173.69 6.08333 173.408 6.4697 173.219 6.95455C173.033 7.43939 172.94 7.97727 172.94 8.56818C172.94 9.17424 173.035 9.71023 173.224 10.1761C173.418 10.6383 173.702 11.0019 174.077 11.267C174.455 11.5284 174.925 11.6591 175.486 11.6591ZM188.827 13.2045C188.274 13.2045 187.772 13.1004 187.321 12.892C186.87 12.6799 186.512 12.375 186.247 11.9773C185.982 11.5758 185.849 11.0909 185.849 10.5227C185.849 10.0227 185.948 9.61742 186.145 9.30682C186.342 8.99242 186.605 8.74621 186.935 8.56818C187.264 8.39015 187.628 8.25758 188.026 8.17045C188.427 8.07955 188.83 8.00758 189.236 7.95455C189.766 7.88636 190.196 7.83523 190.526 7.80114C190.859 7.76326 191.101 7.70076 191.253 7.61364C191.408 7.52652 191.486 7.375 191.486 7.15909V7.11364C191.486 6.55303 191.332 6.11742 191.026 5.80682C190.723 5.49621 190.262 5.34091 189.645 5.34091C189.005 5.34091 188.503 5.48106 188.139 5.76136C187.776 6.04167 187.52 6.34091 187.372 6.65909L186.099 6.20455C186.327 5.67424 186.63 5.26136 187.009 4.96591C187.391 4.66667 187.808 4.45833 188.259 4.34091C188.713 4.2197 189.16 4.15909 189.599 4.15909C189.88 4.15909 190.202 4.19318 190.565 4.26136C190.933 4.32576 191.287 4.46023 191.628 4.66477C191.973 4.86932 192.259 5.17803 192.486 5.59091C192.713 6.00379 192.827 6.55682 192.827 7.25V13H191.486V11.8182H191.418C191.327 12.0076 191.175 12.2102 190.963 12.4261C190.751 12.642 190.469 12.8258 190.116 12.9773C189.764 13.1288 189.334 13.2045 188.827 13.2045ZM189.031 12C189.562 12 190.009 11.8958 190.372 11.6875C190.74 11.4792 191.016 11.2102 191.202 10.8807C191.391 10.5511 191.486 10.2045 191.486 9.84091V8.61364C191.429 8.68182 191.304 8.74432 191.111 8.80114C190.921 8.85417 190.702 8.90151 190.452 8.94318C190.205 8.98106 189.965 9.01515 189.73 9.04545C189.499 9.07197 189.312 9.0947 189.168 9.11364C188.819 9.15909 188.493 9.23295 188.19 9.33523C187.891 9.43371 187.649 9.58333 187.463 9.78409C187.281 9.98106 187.19 10.25 187.19 10.5909C187.19 11.0568 187.363 11.4091 187.707 11.6477C188.056 11.8826 188.497 12 189.031 12ZM196.615 7.75V13H195.274V4.27273H196.57V5.63636H196.683C196.888 5.19318 197.198 4.83712 197.615 4.56818C198.032 4.29545 198.57 4.15909 199.229 4.15909C199.82 4.15909 200.337 4.2803 200.78 4.52273C201.223 4.76136 201.568 5.125 201.814 5.61364C202.06 6.09848 202.183 6.71212 202.183 7.45455V13H200.842V7.54545C200.842 6.85985 200.664 6.32576 200.308 5.94318C199.952 5.55682 199.464 5.36364 198.842 5.36364C198.414 5.36364 198.032 5.45644 197.695 5.64205C197.361 5.82765 197.098 6.09848 196.905 6.45455C196.712 6.81061 196.615 7.24242 196.615 7.75ZM207.929 13.1818C207.202 13.1818 206.56 12.9981 206.003 12.6307C205.446 12.2595 205.01 11.7367 204.696 11.0625C204.382 10.3845 204.224 9.58333 204.224 8.65909C204.224 7.74242 204.382 6.94697 204.696 6.27273C205.01 5.59848 205.448 5.07765 206.009 4.71023C206.569 4.3428 207.217 4.15909 207.952 4.15909C208.52 4.15909 208.969 4.25379 209.298 4.44318C209.632 4.62879 209.885 4.84091 210.06 5.07955C210.238 5.31439 210.376 5.50758 210.474 5.65909H210.588V1.36364H211.929V13H210.634V11.6591H210.474C210.376 11.8182 210.236 12.0189 210.054 12.2614C209.872 12.5 209.613 12.714 209.276 12.9034C208.938 13.089 208.49 13.1818 207.929 13.1818ZM208.111 11.9773C208.649 11.9773 209.103 11.8371 209.474 11.5568C209.846 11.2727 210.128 10.8807 210.321 10.3807C210.514 9.87689 210.611 9.29545 210.611 8.63636C210.611 7.98485 210.516 7.41477 210.327 6.92614C210.137 6.43371 209.857 6.05114 209.486 5.77841C209.115 5.50189 208.656 5.36364 208.111 5.36364C207.543 5.36364 207.069 5.50947 206.69 5.80114C206.315 6.08902 206.033 6.48106 205.844 6.97727C205.658 7.4697 205.565 8.02273 205.565 8.63636C205.565 9.25758 205.66 9.82197 205.849 10.3295C206.043 10.8333 206.327 11.2348 206.702 11.5341C207.08 11.8295 207.55 11.9773 208.111 11.9773ZM222.366 13.1818C221.639 13.1818 220.997 12.9981 220.44 12.6307C219.884 12.2595 219.448 11.7367 219.134 11.0625C218.819 10.3845 218.662 9.58333 218.662 8.65909C218.662 7.74242 218.819 6.94697 219.134 6.27273C219.448 5.59848 219.885 5.07765 220.446 4.71023C221.007 4.3428 221.654 4.15909 222.389 4.15909C222.957 4.15909 223.406 4.25379 223.736 4.44318C224.069 4.62879 224.323 4.84091 224.497 5.07955C224.675 5.31439 224.813 5.50758 224.912 5.65909H225.026V1.36364H226.366V13H225.071V11.6591H224.912C224.813 11.8182 224.673 12.0189 224.491 12.2614C224.31 12.5 224.05 12.714 223.713 12.9034C223.376 13.089 222.927 13.1818 222.366 13.1818ZM222.548 11.9773C223.086 11.9773 223.541 11.8371 223.912 11.5568C224.283 11.2727 224.565 10.8807 224.759 10.3807C224.952 9.87689 225.048 9.29545 225.048 8.63636C225.048 7.98485 224.954 7.41477 224.764 6.92614C224.575 6.43371 224.295 6.05114 223.923 5.77841C223.552 5.50189 223.094 5.36364 222.548 5.36364C221.98 5.36364 221.507 5.50947 221.128 5.80114C220.753 6.08902 220.471 6.48106 220.281 6.97727C220.096 7.4697 220.003 8.02273 220.003 8.63636C220.003 9.25758 220.098 9.82197 220.287 10.3295C220.48 10.8333 220.764 11.2348 221.139 11.5341C221.518 11.8295 221.988 11.9773 222.548 11.9773ZM229.009 13V4.27273H230.304V5.59091H230.395C230.554 5.15909 230.842 4.80871 231.259 4.53977C231.675 4.27083 232.145 4.13636 232.668 4.13636C232.766 4.13636 232.889 4.13826 233.037 4.14205C233.185 4.14583 233.296 4.15152 233.372 4.15909V5.52273C233.327 5.51136 233.223 5.49432 233.06 5.47159C232.901 5.44508 232.732 5.43182 232.554 5.43182C232.13 5.43182 231.751 5.52083 231.418 5.69886C231.088 5.87311 230.827 6.11553 230.634 6.42614C230.444 6.73295 230.349 7.08333 230.349 7.47727V13H229.009ZM238.241 13.1818C237.454 13.1818 236.762 12.9943 236.168 12.6193C235.577 12.2443 235.115 11.7197 234.781 11.0455C234.452 10.3712 234.287 9.58333 234.287 8.68182C234.287 7.77273 234.452 6.97917 234.781 6.30114C235.115 5.62311 235.577 5.09659 236.168 4.72159C236.762 4.34659 237.454 4.15909 238.241 4.15909C239.029 4.15909 239.719 4.34659 240.31 4.72159C240.904 5.09659 241.366 5.62311 241.696 6.30114C242.029 6.97917 242.196 7.77273 242.196 8.68182C242.196 9.58333 242.029 10.3712 241.696 11.0455C241.366 11.7197 240.904 12.2443 240.31 12.6193C239.719 12.9943 239.029 13.1818 238.241 13.1818ZM238.241 11.9773C238.84 11.9773 239.332 11.8239 239.719 11.517C240.105 11.2102 240.391 10.8068 240.577 10.3068C240.762 9.80682 240.855 9.26515 240.855 8.68182C240.855 8.09848 240.762 7.55492 240.577 7.05114C240.391 6.54735 240.105 6.14015 239.719 5.82955C239.332 5.51894 238.84 5.36364 238.241 5.36364C237.643 5.36364 237.151 5.51894 236.764 5.82955C236.378 6.14015 236.092 6.54735 235.906 7.05114C235.721 7.55492 235.628 8.09848 235.628 8.68182C235.628 9.26515 235.721 9.80682 235.906 10.3068C236.092 10.8068 236.378 11.2102 236.764 11.517C237.151 11.8239 237.643 11.9773 238.241 11.9773ZM244.243 16.2727V4.27273H245.538V5.65909H245.697C245.796 5.50758 245.932 5.31439 246.107 5.07955C246.285 4.84091 246.538 4.62879 246.868 4.44318C247.201 4.25379 247.652 4.15909 248.22 4.15909C248.955 4.15909 249.603 4.3428 250.163 4.71023C250.724 5.07765 251.161 5.59848 251.476 6.27273C251.79 6.94697 251.947 7.74242 251.947 8.65909C251.947 9.58333 251.79 10.3845 251.476 11.0625C251.161 11.7367 250.726 12.2595 250.169 12.6307C249.612 12.9981 248.97 13.1818 248.243 13.1818C247.682 13.1818 247.233 13.089 246.896 12.9034C246.559 12.714 246.3 12.5 246.118 12.2614C245.936 12.0189 245.796 11.8182 245.697 11.6591H245.584V16.2727H244.243ZM245.561 8.63636C245.561 9.29545 245.658 9.87689 245.851 10.3807C246.044 10.8807 246.326 11.2727 246.697 11.5568C247.069 11.8371 247.523 11.9773 248.061 11.9773C248.622 11.9773 249.089 11.8295 249.464 11.5341C249.843 11.2348 250.127 10.8333 250.317 10.3295C250.51 9.82197 250.607 9.25758 250.607 8.63636C250.607 8.02273 250.512 7.4697 250.322 6.97727C250.137 6.48106 249.855 6.08902 249.476 5.80114C249.101 5.50947 248.629 5.36364 248.061 5.36364C247.516 5.36364 247.057 5.50189 246.686 5.77841C246.315 6.05114 246.035 6.43371 245.845 6.92614C245.656 7.41477 245.561 7.98485 245.561 8.63636ZM0.752841 37V25.3636H4.68466C5.59754 25.3636 6.34375 25.5284 6.9233 25.858C7.50663 26.1837 7.93845 26.625 8.21875 27.1818C8.49905 27.7386 8.6392 28.3598 8.6392 29.0455C8.6392 29.7311 8.49905 30.3542 8.21875 30.9148C7.94224 31.4754 7.51421 31.9223 6.93466 32.2557C6.35511 32.5852 5.61269 32.75 4.70739 32.75H1.8892V31.5H4.66193C5.28693 31.5 5.78883 31.392 6.16761 31.1761C6.5464 30.9602 6.82102 30.6686 6.99148 30.3011C7.16572 29.9299 7.25284 29.5114 7.25284 29.0455C7.25284 28.5795 7.16572 28.1629 6.99148 27.7955C6.82102 27.428 6.54451 27.1402 6.16193 26.9318C5.77936 26.7197 5.27178 26.6136 4.6392 26.6136H2.16193V37H0.752841ZM20.1364 25.3636V37H18.7727L12.4318 27.8636H12.3182V37H10.9091V25.3636H12.2727L18.6364 34.5227H18.75V25.3636H20.1364ZM30.9105 29C30.7855 28.6174 30.6207 28.2746 30.4162 27.9716C30.2154 27.6648 29.9749 27.4034 29.6946 27.1875C29.4181 26.9716 29.1037 26.8068 28.7514 26.6932C28.3991 26.5795 28.0128 26.5227 27.5923 26.5227C26.9029 26.5227 26.276 26.7008 25.7116 27.0568C25.1473 27.4129 24.6984 27.9375 24.3651 28.6307C24.0317 29.3239 23.8651 30.1742 23.8651 31.1818C23.8651 32.1894 24.0336 33.0398 24.3707 33.733C24.7079 34.4261 25.1643 34.9508 25.7401 35.3068C26.3158 35.6629 26.9635 35.8409 27.6832 35.8409C28.3499 35.8409 28.937 35.6989 29.4446 35.4148C29.956 35.1269 30.3537 34.7216 30.6378 34.1989C30.9257 33.6723 31.0696 33.053 31.0696 32.3409L31.5014 32.4318H28.0014V31.1818H32.4332V32.4318C32.4332 33.3902 32.2287 34.2235 31.8196 34.9318C31.4143 35.6402 30.8537 36.1894 30.1378 36.5795C29.4257 36.9659 28.6075 37.1591 27.6832 37.1591C26.6529 37.1591 25.7476 36.9167 24.9673 36.4318C24.1908 35.947 23.5848 35.2576 23.1491 34.3636C22.7173 33.4697 22.5014 32.4091 22.5014 31.1818C22.5014 30.2614 22.6245 29.4337 22.8707 28.6989C23.1207 27.9602 23.473 27.3314 23.9276 26.8125C24.3821 26.2936 24.92 25.8958 25.5412 25.6193C26.1624 25.3428 26.8461 25.2045 27.5923 25.2045C28.206 25.2045 28.7779 25.2973 29.3082 25.483C29.8423 25.6648 30.3177 25.9242 30.7344 26.2614C31.1548 26.5947 31.5052 26.9943 31.7855 27.4602C32.0658 27.9223 32.259 28.4356 32.3651 29H30.9105ZM36.6648 35.4091L36.5739 36.0227C36.5095 36.4545 36.411 36.9167 36.2784 37.4091C36.1496 37.9015 36.0152 38.3655 35.875 38.8011C35.7348 39.2367 35.6193 39.5833 35.5284 39.8409H34.5057C34.5549 39.5985 34.6193 39.2784 34.6989 38.8807C34.7784 38.483 34.858 38.0379 34.9375 37.5455C35.0208 37.0568 35.089 36.5568 35.142 36.0455L35.2102 35.4091H36.6648ZM48.2855 25.3636H49.6946V33.6818C49.6946 34.4242 49.5582 35.0549 49.2855 35.5739C49.0128 36.0928 48.6283 36.4867 48.1321 36.7557C47.6359 37.0246 47.0507 37.1591 46.3764 37.1591C45.7401 37.1591 45.1738 37.0436 44.6776 36.8125C44.1813 36.5777 43.7912 36.2443 43.5071 35.8125C43.223 35.3807 43.081 34.8674 43.081 34.2727H44.4673C44.4673 34.6023 44.5488 34.8902 44.7116 35.1364C44.8783 35.3788 45.1056 35.5682 45.3935 35.7045C45.6813 35.8409 46.009 35.9091 46.3764 35.9091C46.7817 35.9091 47.1264 35.8239 47.4105 35.6534C47.6946 35.483 47.9105 35.233 48.0582 34.9034C48.2098 34.5701 48.2855 34.1629 48.2855 33.6818V25.3636ZM52.5185 37V25.3636H56.4503C57.3632 25.3636 58.1094 25.5284 58.6889 25.858C59.2723 26.1837 59.7041 26.625 59.9844 27.1818C60.2647 27.7386 60.4048 28.3598 60.4048 29.0455C60.4048 29.7311 60.2647 30.3542 59.9844 30.9148C59.7079 31.4754 59.2798 31.9223 58.7003 32.2557C58.1207 32.5852 57.3783 32.75 56.473 32.75H53.6548V31.5H56.4276C57.0526 31.5 57.5545 31.392 57.9332 31.1761C58.312 30.9602 58.5866 30.6686 58.7571 30.3011C58.9313 29.9299 59.0185 29.5114 59.0185 29.0455C59.0185 28.5795 58.9313 28.1629 58.7571 27.7955C58.5866 27.428 58.3101 27.1402 57.9276 26.9318C57.545 26.7197 57.0374 26.6136 56.4048 26.6136H53.9276V37H52.5185ZM70.6293 29C70.5043 28.6174 70.3395 28.2746 70.1349 27.9716C69.9342 27.6648 69.6937 27.4034 69.4134 27.1875C69.1368 26.9716 68.8224 26.8068 68.4702 26.6932C68.1179 26.5795 67.7315 26.5227 67.3111 26.5227C66.6217 26.5227 65.9948 26.7008 65.4304 27.0568C64.866 27.4129 64.4171 27.9375 64.0838 28.6307C63.7505 29.3239 63.5838 30.1742 63.5838 31.1818C63.5838 32.1894 63.7524 33.0398 64.0895 33.733C64.4266 34.4261 64.883 34.9508 65.4588 35.3068C66.0346 35.6629 66.6823 35.8409 67.402 35.8409C68.0687 35.8409 68.6558 35.6989 69.1634 35.4148C69.6747 35.1269 70.0724 34.7216 70.3565 34.1989C70.6444 33.6723 70.7884 33.053 70.7884 32.3409L71.2202 32.4318H67.7202V31.1818H72.152V32.4318C72.152 33.3902 71.9474 34.2235 71.5384 34.9318C71.133 35.6402 70.5724 36.1894 69.8565 36.5795C69.1444 36.9659 68.3262 37.1591 67.402 37.1591C66.3717 37.1591 65.4664 36.9167 64.6861 36.4318C63.9096 35.947 63.3035 35.2576 62.8679 34.3636C62.4361 33.4697 62.2202 32.4091 62.2202 31.1818C62.2202 30.2614 62.3433 29.4337 62.5895 28.6989C62.8395 27.9602 63.1918 27.3314 63.6463 26.8125C64.1009 26.2936 64.6387 25.8958 65.2599 25.6193C65.8812 25.3428 66.5649 25.2045 67.3111 25.2045C67.9247 25.2045 68.4967 25.2973 69.027 25.483C69.5611 25.6648 70.0365 25.9242 70.4531 26.2614C70.8736 26.5947 71.224 26.9943 71.5043 27.4602C71.7846 27.9223 71.9777 28.4356 72.0838 29H70.6293ZM82.179 37.1591C81.4138 37.1591 80.7547 37.0189 80.2017 36.7386C79.6487 36.4583 79.2225 36.0739 78.9233 35.5852C78.6241 35.0966 78.4744 34.5379 78.4744 33.9091C78.4744 33.4242 78.5767 32.9943 78.7812 32.6193C78.9896 32.2405 79.2756 31.8902 79.6392 31.5682C80.0066 31.2424 80.429 30.9167 80.9062 30.5909L82.5881 29.3409C82.9176 29.125 83.1809 28.8939 83.3778 28.6477C83.5786 28.4015 83.679 28.0795 83.679 27.6818C83.679 27.3864 83.5483 27.1004 83.2869 26.8239C83.0294 26.5473 82.6903 26.4091 82.2699 26.4091C81.9744 26.4091 81.7131 26.4848 81.4858 26.6364C81.2623 26.7841 81.0862 26.9735 80.9574 27.2045C80.8324 27.4318 80.7699 27.6667 80.7699 27.9091C80.7699 28.1818 80.8438 28.4583 80.9915 28.7386C81.143 29.0152 81.3343 29.2992 81.5653 29.5909C81.8002 29.8788 82.0426 30.1742 82.2926 30.4773L87.6335 37H86.0199L81.6108 31.6818C81.2017 31.1894 80.8305 30.7424 80.4972 30.3409C80.1638 29.9394 79.8987 29.5436 79.7017 29.1534C79.5047 28.7633 79.4062 28.3409 79.4062 27.8864C79.4062 27.3636 79.5218 26.9053 79.7528 26.5114C79.9877 26.1136 80.3153 25.8049 80.7358 25.5852C81.16 25.3617 81.6563 25.25 82.2244 25.25C82.8078 25.25 83.3097 25.3636 83.7301 25.5909C84.1506 25.8144 84.4744 26.1117 84.7017 26.483C84.929 26.8504 85.0426 27.25 85.0426 27.6818C85.0426 28.2386 84.9044 28.7216 84.6278 29.1307C84.3513 29.5398 83.9744 29.9205 83.4972 30.2727L81.179 32C80.6563 32.3864 80.3021 32.7614 80.1165 33.125C79.9309 33.4886 79.8381 33.75 79.8381 33.9091C79.8381 34.2727 79.9328 34.6117 80.1222 34.9261C80.3116 35.2405 80.5786 35.4943 80.9233 35.6875C81.268 35.8807 81.6714 35.9773 82.1335 35.9773C82.5729 35.9773 83.0009 35.8845 83.4176 35.6989C83.8343 35.5095 84.2112 35.2367 84.5483 34.8807C84.8892 34.5246 85.1581 34.0966 85.3551 33.5966C85.5559 33.0966 85.6562 32.5341 85.6562 31.9091H86.9517C86.9517 32.6818 86.8627 33.3125 86.6847 33.8011C86.5066 34.2898 86.3059 34.6723 86.0824 34.9489C85.8589 35.2254 85.679 35.4318 85.5426 35.5682C85.4972 35.625 85.4555 35.6818 85.4176 35.7386C85.3797 35.7955 85.3381 35.8523 85.2926 35.9091C84.9176 36.3295 84.4441 36.6439 83.8722 36.8523C83.3002 37.0568 82.7358 37.1591 82.179 37.1591ZM93.7997 37V25.3636H97.7315C98.6444 25.3636 99.3906 25.5284 99.9702 25.858C100.554 26.1837 100.985 26.625 101.266 27.1818C101.546 27.7386 101.686 28.3598 101.686 29.0455C101.686 29.7311 101.546 30.3542 101.266 30.9148C100.989 31.4754 100.561 31.9223 99.9815 32.2557C99.402 32.5852 98.6596 32.75 97.7543 32.75H94.9361V31.5H97.7088C98.3338 31.5 98.8357 31.392 99.2145 31.1761C99.5933 30.9602 99.8679 30.6686 100.038 30.3011C100.213 29.9299 100.3 29.5114 100.3 29.0455C100.3 28.5795 100.213 28.1629 100.038 27.7955C99.8679 27.428 99.5914 27.1402 99.2088 26.9318C98.8262 26.7197 98.3187 26.6136 97.6861 26.6136H95.2088V37H93.7997ZM107.547 37H103.956V25.3636H107.706C108.835 25.3636 109.801 25.5966 110.604 26.0625C111.407 26.5246 112.022 27.1894 112.45 28.0568C112.878 28.9205 113.092 29.9545 113.092 31.1591C113.092 32.3712 112.876 33.4148 112.445 34.2898C112.013 35.161 111.384 35.8314 110.558 36.3011C109.732 36.767 108.729 37 107.547 37ZM105.365 35.75H107.456C108.418 35.75 109.215 35.5644 109.848 35.1932C110.481 34.822 110.952 34.2936 111.263 33.608C111.573 32.9223 111.729 32.1061 111.729 31.1591C111.729 30.2197 111.575 29.411 111.268 28.733C110.962 28.0511 110.503 27.5284 109.893 27.1648C109.284 26.7973 108.524 26.6136 107.615 26.6136H105.365V35.75ZM115.456 37V25.3636H122.433V26.6136H116.865V30.5455H121.911V31.7955H116.865V37H115.456ZM129.642 32.0909C129.642 30.6591 129.828 29.3428 130.199 28.142C130.574 26.9375 131.108 25.8295 131.801 24.8182H132.983C132.71 25.1932 132.455 25.6553 132.216 26.2045C131.981 26.75 131.775 27.3504 131.597 28.0057C131.419 28.6572 131.278 29.3314 131.176 30.0284C131.078 30.7254 131.028 31.4129 131.028 32.0909C131.028 32.9924 131.116 33.9072 131.29 34.8352C131.464 35.7633 131.699 36.625 131.994 37.4205C132.29 38.2159 132.619 38.8636 132.983 39.3636H131.801C131.108 38.3523 130.574 37.2462 130.199 36.0455C129.828 34.8409 129.642 33.5227 129.642 32.0909ZM134.962 37V28.2727H136.257V29.6364H136.371C136.553 29.1705 136.846 28.8087 137.251 28.5511C137.657 28.2898 138.143 28.1591 138.712 28.1591C139.287 28.1591 139.767 28.2898 140.149 28.5511C140.536 28.8087 140.837 29.1705 141.053 29.6364H141.143C141.367 29.1856 141.702 28.8277 142.149 28.5625C142.596 28.2936 143.132 28.1591 143.757 28.1591C144.537 28.1591 145.176 28.4034 145.672 28.892C146.168 29.3769 146.416 30.1326 146.416 31.1591V37H145.075V31.1591C145.075 30.5152 144.899 30.0549 144.547 29.7784C144.195 29.5019 143.78 29.3636 143.303 29.3636C142.689 29.3636 142.214 29.5492 141.876 29.9205C141.539 30.2879 141.371 30.7538 141.371 31.3182V37H140.007V31.0227C140.007 30.5265 139.846 30.1269 139.524 29.8239C139.202 29.517 138.787 29.3636 138.28 29.3636C137.931 29.3636 137.606 29.4564 137.303 29.642C137.003 29.8277 136.761 30.0852 136.575 30.4148C136.393 30.7405 136.303 31.1174 136.303 31.5455V37H134.962ZM151.436 37.2045C150.883 37.2045 150.381 37.1004 149.93 36.892C149.48 36.6799 149.122 36.375 148.857 35.9773C148.591 35.5758 148.459 35.0909 148.459 34.5227C148.459 34.0227 148.557 33.6174 148.754 33.3068C148.951 32.9924 149.214 32.7462 149.544 32.5682C149.874 32.3902 150.237 32.2576 150.635 32.1705C151.036 32.0795 151.44 32.0076 151.845 31.9545C152.375 31.8864 152.805 31.8352 153.135 31.8011C153.468 31.7633 153.711 31.7008 153.862 31.6136C154.018 31.5265 154.095 31.375 154.095 31.1591V31.1136C154.095 30.553 153.942 30.1174 153.635 29.8068C153.332 29.4962 152.872 29.3409 152.254 29.3409C151.614 29.3409 151.112 29.4811 150.749 29.7614C150.385 30.0417 150.129 30.3409 149.982 30.6591L148.709 30.2045C148.936 29.6742 149.239 29.2614 149.618 28.9659C150 28.6667 150.417 28.4583 150.868 28.3409C151.322 28.2197 151.769 28.1591 152.209 28.1591C152.489 28.1591 152.811 28.1932 153.175 28.2614C153.542 28.3258 153.896 28.4602 154.237 28.6648C154.582 28.8693 154.868 29.178 155.095 29.5909C155.322 30.0038 155.436 30.5568 155.436 31.25V37H154.095V35.8182H154.027C153.936 36.0076 153.785 36.2102 153.572 36.4261C153.36 36.642 153.078 36.8258 152.726 36.9773C152.374 37.1288 151.944 37.2045 151.436 37.2045ZM151.641 36C152.171 36 152.618 35.8958 152.982 35.6875C153.349 35.4792 153.625 35.2102 153.811 34.8807C154 34.5511 154.095 34.2045 154.095 33.8409V32.6136C154.038 32.6818 153.913 32.7443 153.72 32.8011C153.531 32.8542 153.311 32.9015 153.061 32.9432C152.815 32.9811 152.574 33.0152 152.339 33.0455C152.108 33.072 151.921 33.0947 151.777 33.1136C151.429 33.1591 151.103 33.233 150.8 33.3352C150.5 33.4337 150.258 33.5833 150.072 33.7841C149.891 33.9811 149.8 34.25 149.8 34.5909C149.8 35.0568 149.972 35.4091 150.317 35.6477C150.665 35.8826 151.107 36 151.641 36ZM158.884 28.2727L160.974 31.8409L163.065 28.2727H164.611L161.793 32.6364L164.611 37H163.065L160.974 33.6136L158.884 37H157.338L160.111 32.6364L157.338 28.2727H158.884ZM177.206 30.2273L176.001 30.5682C175.926 30.3674 175.814 30.1723 175.666 29.983C175.522 29.7898 175.325 29.6307 175.075 29.5057C174.825 29.3807 174.505 29.3182 174.115 29.3182C173.581 29.3182 173.136 29.4413 172.78 29.6875C172.428 29.9299 172.251 30.2386 172.251 30.6136C172.251 30.947 172.373 31.2102 172.615 31.4034C172.857 31.5966 173.236 31.7576 173.751 31.8864L175.047 32.2045C175.827 32.3939 176.409 32.6837 176.791 33.0739C177.174 33.4602 177.365 33.9583 177.365 34.5682C177.365 35.0682 177.221 35.5152 176.933 35.9091C176.649 36.303 176.251 36.6136 175.74 36.8409C175.229 37.0682 174.634 37.1818 173.956 37.1818C173.066 37.1818 172.329 36.9886 171.746 36.6023C171.162 36.2159 170.793 35.6515 170.638 34.9091L171.911 34.5909C172.032 35.0606 172.261 35.4129 172.598 35.6477C172.939 35.8826 173.384 36 173.933 36C174.558 36 175.054 35.8674 175.422 35.6023C175.793 35.3333 175.979 35.0114 175.979 34.6364C175.979 34.3333 175.873 34.0795 175.661 33.875C175.448 33.6667 175.123 33.5114 174.683 33.4091L173.229 33.0682C172.429 32.8788 171.842 32.5852 171.467 32.1875C171.096 31.786 170.911 31.2841 170.911 30.6818C170.911 30.1894 171.049 29.7538 171.325 29.375C171.606 28.9962 171.986 28.6989 172.467 28.483C172.952 28.267 173.501 28.1591 174.115 28.1591C174.979 28.1591 175.657 28.3485 176.149 28.7273C176.645 29.1061 176.998 29.6061 177.206 30.2273ZM179.384 37V28.2727H180.724V37H179.384ZM180.065 26.8182C179.804 26.8182 179.579 26.7292 179.389 26.5511C179.204 26.3731 179.111 26.1591 179.111 25.9091C179.111 25.6591 179.204 25.4451 179.389 25.267C179.579 25.089 179.804 25 180.065 25C180.327 25 180.55 25.089 180.736 25.267C180.925 25.4451 181.02 25.6591 181.02 25.9091C181.02 26.1591 180.925 26.3731 180.736 26.5511C180.55 26.7292 180.327 26.8182 180.065 26.8182ZM182.93 37V35.9773L187.885 29.6136V29.5227H183.089V28.2727H189.612V29.3409L184.794 35.6591V35.75H189.771V37H182.93ZM195.246 37.1818C194.405 37.1818 193.679 36.9962 193.07 36.625C192.464 36.25 191.996 35.7273 191.666 35.0568C191.34 34.3826 191.178 33.5985 191.178 32.7045C191.178 31.8106 191.34 31.0227 191.666 30.3409C191.996 29.6553 192.454 29.1212 193.041 28.7386C193.632 28.3523 194.321 28.1591 195.109 28.1591C195.564 28.1591 196.013 28.2348 196.456 28.3864C196.899 28.5379 197.303 28.7841 197.666 29.125C198.03 29.4621 198.32 29.9091 198.536 30.4659C198.751 31.0227 198.859 31.7083 198.859 32.5227V33.0909H192.132V31.9318H197.496C197.496 31.4394 197.397 31 197.2 30.6136C197.007 30.2273 196.731 29.9223 196.371 29.6989C196.015 29.4754 195.594 29.3636 195.109 29.3636C194.575 29.3636 194.113 29.4962 193.723 29.7614C193.337 30.0227 193.039 30.3636 192.831 30.7841C192.623 31.2045 192.518 31.6553 192.518 32.1364V32.9091C192.518 33.5682 192.632 34.1269 192.859 34.5852C193.09 35.0398 193.411 35.3864 193.82 35.625C194.229 35.8598 194.704 35.9773 195.246 35.9773C195.598 35.9773 195.916 35.928 196.2 35.8295C196.488 35.7273 196.736 35.5758 196.945 35.375C197.153 35.1705 197.314 34.9167 197.428 34.6136L198.723 34.9773C198.587 35.4167 198.357 35.803 198.036 36.1364C197.714 36.4659 197.316 36.7235 196.842 36.9091C196.369 37.0909 195.837 37.1818 195.246 37.1818ZM206.376 37.0909C206.096 37.0909 205.856 36.9905 205.655 36.7898C205.454 36.589 205.354 36.3485 205.354 36.0682C205.354 35.7879 205.454 35.5473 205.655 35.3466C205.856 35.1458 206.096 35.0455 206.376 35.0455C206.657 35.0455 206.897 35.1458 207.098 35.3466C207.299 35.5473 207.399 35.7879 207.399 36.0682C207.399 36.2538 207.352 36.4242 207.257 36.5795C207.166 36.7348 207.043 36.8598 206.888 36.9545C206.736 37.0455 206.566 37.0909 206.376 37.0909ZM218.374 25.3636V37H216.964V26.8409H216.896L214.055 28.7273V27.2955L216.964 25.3636H218.374ZM221.72 37V35.9773L225.561 31.7727C226.012 31.2803 226.383 30.8523 226.675 30.4886C226.966 30.1212 227.182 29.7765 227.322 29.4545C227.466 29.1288 227.538 28.7879 227.538 28.4318C227.538 28.0227 227.44 27.6686 227.243 27.3693C227.05 27.0701 226.785 26.839 226.447 26.6761C226.11 26.5133 225.732 26.4318 225.311 26.4318C224.864 26.4318 224.474 26.5246 224.141 26.7102C223.811 26.892 223.555 27.1477 223.374 27.4773C223.196 27.8068 223.107 28.1932 223.107 28.6364H221.766C221.766 27.9545 221.923 27.3561 222.237 26.8409C222.552 26.3258 222.98 25.9242 223.521 25.6364C224.067 25.3485 224.679 25.2045 225.357 25.2045C226.038 25.2045 226.643 25.3485 227.169 25.6364C227.696 25.9242 228.108 26.3125 228.408 26.8011C228.707 27.2898 228.857 27.8333 228.857 28.4318C228.857 28.8598 228.779 29.2784 228.624 29.6875C228.472 30.0928 228.207 30.5455 227.828 31.0455C227.453 31.5417 226.932 32.1477 226.266 32.8636L223.652 35.6591V35.75H229.061V37H221.72ZM231.43 37V28.2727H232.726V29.6364H232.839C233.021 29.1705 233.315 28.8087 233.72 28.5511C234.125 28.2898 234.612 28.1591 235.18 28.1591C235.756 28.1591 236.235 28.2898 236.618 28.5511C237.004 28.8087 237.305 29.1705 237.521 29.6364H237.612C237.836 29.1856 238.171 28.8277 238.618 28.5625C239.065 28.2936 239.601 28.1591 240.226 28.1591C241.006 28.1591 241.644 28.4034 242.141 28.892C242.637 29.3769 242.885 30.1326 242.885 31.1591V37H241.544V31.1591C241.544 30.5152 241.368 30.0549 241.016 29.7784C240.663 29.5019 240.249 29.3636 239.771 29.3636C239.158 29.3636 238.682 29.5492 238.345 29.9205C238.008 30.2879 237.839 30.7538 237.839 31.3182V37H236.476V31.0227C236.476 30.5265 236.315 30.1269 235.993 29.8239C235.671 29.517 235.256 29.3636 234.749 29.3636C234.4 29.3636 234.074 29.4564 233.771 29.642C233.472 29.8277 233.23 30.0852 233.044 30.4148C232.862 30.7405 232.771 31.1174 232.771 31.5455V37H231.43ZM245.518 37V25.3636H246.859V29.6591H246.973C247.071 29.5076 247.208 29.3144 247.382 29.0795C247.56 28.8409 247.814 28.6288 248.143 28.4432C248.477 28.2538 248.928 28.1591 249.496 28.1591C250.231 28.1591 250.878 28.3428 251.439 28.7102C252 29.0777 252.437 29.5985 252.751 30.2727C253.066 30.947 253.223 31.7424 253.223 32.6591C253.223 33.5833 253.066 34.3845 252.751 35.0625C252.437 35.7367 252.001 36.2595 251.445 36.6307C250.888 36.9981 250.246 37.1818 249.518 37.1818C248.958 37.1818 248.509 37.089 248.172 36.9034C247.835 36.714 247.575 36.5 247.393 36.2614C247.212 36.0189 247.071 35.8182 246.973 35.6591H246.814V37H245.518ZM246.837 32.6364C246.837 33.2955 246.933 33.8769 247.126 34.3807C247.32 34.8807 247.602 35.2727 247.973 35.5568C248.344 35.8371 248.799 35.9773 249.337 35.9773C249.897 35.9773 250.365 35.8295 250.74 35.5341C251.119 35.2348 251.403 34.8333 251.592 34.3295C251.786 33.822 251.882 33.2576 251.882 32.6364C251.882 32.0227 251.787 31.4697 251.598 30.9773C251.412 30.4811 251.13 30.089 250.751 29.8011C250.376 29.5095 249.905 29.3636 249.337 29.3636C248.791 29.3636 248.333 29.5019 247.962 29.7784C247.59 30.0511 247.31 30.4337 247.121 30.9261C246.931 31.4148 246.837 31.9848 246.837 32.6364ZM257.95 32.0909C257.95 33.5227 257.763 34.8409 257.388 36.0455C257.017 37.2462 256.484 38.3523 255.791 39.3636H254.609C254.882 38.9886 255.136 38.5265 255.371 37.9773C255.609 37.4318 255.818 36.8333 255.996 36.1818C256.174 35.5265 256.312 34.8504 256.411 34.1534C256.513 33.4527 256.564 32.7652 256.564 32.0909C256.564 31.1894 256.477 30.2746 256.303 29.3466C256.128 28.4186 255.893 27.5568 255.598 26.7614C255.303 25.9659 254.973 25.3182 254.609 24.8182H255.791C256.484 25.8295 257.017 26.9375 257.388 28.142C257.763 29.3428 257.95 30.6591 257.95 32.0909Z" fill="#667085" />
                                </svg>