<svg width="127" height="41" viewBox="0 0 127 41" fill="none" xmlns="http://www.w3.org/2000/svg">
<path d="M17.0376 5.28977H14.9126C14.852 4.94129 14.7403 4.63258 14.5774 4.36364C14.4145 4.09091 14.2119 3.85985 13.9695 3.67045C13.727 3.48106 13.4505 3.33901 13.1399 3.24432C12.8331 3.14583 12.5017 3.09659 12.1456 3.09659C11.513 3.09659 10.9524 3.25568 10.4638 3.57386C9.97514 3.88826 9.59257 4.35038 9.31605 4.96023C9.03954 5.56629 8.90128 6.30682 8.90128 7.18182C8.90128 8.07197 9.03954 8.82197 9.31605 9.43182C9.59635 10.0379 9.97893 10.4962 10.4638 10.8068C10.9524 11.1136 11.5111 11.267 12.1399 11.267C12.4884 11.267 12.8142 11.2216 13.1172 11.1307C13.424 11.036 13.6986 10.8977 13.9411 10.7159C14.1873 10.5341 14.3937 10.3106 14.5604 10.0455C14.7308 9.7803 14.8482 9.47727 14.9126 9.13636L17.0376 9.14773C16.9581 9.70076 16.7857 10.2197 16.5206 10.7045C16.2592 11.1894 15.9164 11.6174 15.4922 11.9886C15.0679 12.3561 14.5717 12.6439 14.0036 12.8523C13.4354 13.0568 12.8047 13.1591 12.1115 13.1591C11.0888 13.1591 10.1759 12.9223 9.37287 12.4489C8.56984 11.9754 7.93726 11.2917 7.47514 10.3977C7.01302 9.50379 6.78196 8.43182 6.78196 7.18182C6.78196 5.92803 7.01491 4.85606 7.48082 3.96591C7.94673 3.07197 8.5812 2.38826 9.38423 1.91477C10.1873 1.44129 11.0964 1.20455 12.1115 1.20455C12.7592 1.20455 13.3615 1.29545 13.9183 1.47727C14.4751 1.65909 14.9714 1.92614 15.407 2.27841C15.8426 2.62689 16.2005 3.05492 16.4808 3.5625C16.7649 4.06629 16.9505 4.64205 17.0376 5.28977ZM20.9339 1.36364V13H18.8771V1.36364H20.9339ZM23.049 13V4.27273H25.1058V13H23.049ZM24.0831 3.03409C23.7573 3.03409 23.477 2.92614 23.2422 2.71023C23.0073 2.49053 22.8899 2.22727 22.8899 1.92045C22.8899 1.60985 23.0073 1.34659 23.2422 1.13068C23.477 0.910984 23.7573 0.801136 24.0831 0.801136C24.4126 0.801136 24.6929 0.910984 24.924 1.13068C25.1589 1.34659 25.2763 1.60985 25.2763 1.92045C25.2763 2.22727 25.1589 2.49053 24.924 2.71023C24.6929 2.92614 24.4126 3.03409 24.0831 3.03409ZM31.0277 13.1705C30.1565 13.1705 29.4084 12.9792 28.7834 12.5966C28.1622 12.214 27.683 11.6856 27.3459 11.0114C27.0125 10.3333 26.8459 9.55303 26.8459 8.67045C26.8459 7.78409 27.0163 7.00189 27.3572 6.32386C27.6982 5.64205 28.1792 5.11174 28.8004 4.73295C29.4254 4.35038 30.1641 4.15909 31.0163 4.15909C31.7247 4.15909 32.3516 4.28977 32.897 4.55114C33.4463 4.80871 33.8838 5.17424 34.2095 5.64773C34.5353 6.11742 34.7209 6.66667 34.7663 7.29545H32.8004C32.7209 6.875 32.5315 6.52462 32.2322 6.24432C31.9368 5.96023 31.541 5.81818 31.0447 5.81818C30.6243 5.81818 30.255 5.93182 29.9368 6.15909C29.6186 6.38258 29.3705 6.70455 29.1925 7.125C29.0182 7.54545 28.9311 8.04924 28.9311 8.63636C28.9311 9.23106 29.0182 9.74242 29.1925 10.1705C29.3667 10.5947 29.611 10.9223 29.9254 11.1534C30.2436 11.3807 30.6167 11.4943 31.0447 11.4943C31.3478 11.4943 31.6186 11.4375 31.8572 11.3239C32.0997 11.2064 32.3023 11.0379 32.4652 10.8182C32.6281 10.5985 32.7398 10.3314 32.8004 10.017H34.7663C34.7171 10.6345 34.5353 11.1818 34.2209 11.6591C33.9065 12.1326 33.4785 12.5038 32.9368 12.7727C32.3951 13.0379 31.7588 13.1705 31.0277 13.1705ZM38.3303 10.2614L38.3246 7.77841H38.6541L41.7905 4.27273H44.1939L40.3359 8.56818H39.9098L38.3303 10.2614ZM36.4553 13V1.36364H38.5121V13H36.4553ZM41.9325 13L39.0916 9.02841L40.478 7.57955L44.3928 13H41.9325ZM53.8913 4.27273V5.86364H48.8743V4.27273H53.8913ZM50.1129 2.18182H52.1697V10.375C52.1697 10.6515 52.2114 10.8636 52.2947 11.0114C52.3819 11.1553 52.4955 11.2538 52.6357 11.3068C52.7758 11.3598 52.9311 11.3864 53.1016 11.3864C53.2304 11.3864 53.3478 11.3769 53.4538 11.358C53.5637 11.339 53.647 11.322 53.7038 11.3068L54.0504 12.9148C53.9406 12.9527 53.7834 12.9943 53.5788 13.0398C53.3781 13.0852 53.1319 13.1117 52.8402 13.1193C52.325 13.1345 51.861 13.0568 51.4482 12.8864C51.0353 12.7121 50.7076 12.4432 50.4652 12.0795C50.2266 11.7159 50.1091 11.2614 50.1129 10.7159V2.18182ZM59.3246 13.1705C58.4723 13.1705 57.7337 12.983 57.1087 12.608C56.4837 12.233 55.9988 11.7083 55.6541 11.0341C55.3132 10.3598 55.1428 9.57197 55.1428 8.67045C55.1428 7.76894 55.3132 6.97917 55.6541 6.30114C55.9988 5.62311 56.4837 5.09659 57.1087 4.72159C57.7337 4.34659 58.4723 4.15909 59.3246 4.15909C60.1768 4.15909 60.9155 4.34659 61.5405 4.72159C62.1655 5.09659 62.6484 5.62311 62.9893 6.30114C63.334 6.97917 63.5064 7.76894 63.5064 8.67045C63.5064 9.57197 63.334 10.3598 62.9893 11.0341C62.6484 11.7083 62.1655 12.233 61.5405 12.608C60.9155 12.983 60.1768 13.1705 59.3246 13.1705ZM59.3359 11.5227C59.7981 11.5227 60.1844 11.3958 60.495 11.142C60.8056 10.8845 61.0367 10.5398 61.1882 10.108C61.3435 9.67614 61.4212 9.19508 61.4212 8.66477C61.4212 8.13068 61.3435 7.64773 61.1882 7.21591C61.0367 6.7803 60.8056 6.43371 60.495 6.17614C60.1844 5.91856 59.7981 5.78977 59.3359 5.78977C58.8625 5.78977 58.4685 5.91856 58.1541 6.17614C57.8435 6.43371 57.6106 6.7803 57.4553 7.21591C57.3037 7.64773 57.228 8.13068 57.228 8.66477C57.228 9.19508 57.3037 9.67614 57.4553 10.108C57.6106 10.5398 57.8435 10.8845 58.1541 11.142C58.4685 11.3958 58.8625 11.5227 59.3359 11.5227ZM74.7834 9.32955V4.27273H76.8402V13H74.8459V11.4489H74.755C74.558 11.9375 74.2341 12.3371 73.7834 12.6477C73.3364 12.9583 72.7853 13.1136 72.13 13.1136C71.558 13.1136 71.0523 12.9867 70.6129 12.733C70.1773 12.4754 69.8364 12.1023 69.5902 11.6136C69.344 11.1212 69.2209 10.5265 69.2209 9.82955V4.27273H71.2777V9.51136C71.2777 10.0644 71.4292 10.5038 71.7322 10.8295C72.0353 11.1553 72.433 11.3182 72.9254 11.3182C73.2285 11.3182 73.522 11.2443 73.8061 11.0966C74.0902 10.9489 74.3232 10.7292 74.505 10.4375C74.6906 10.142 74.7834 9.77273 74.7834 9.32955ZM78.9553 16.2727V4.27273H80.978V5.71591H81.0973C81.2034 5.50379 81.353 5.27841 81.5462 5.03977C81.7393 4.79735 82.0007 4.59091 82.3303 4.42045C82.6598 4.24621 83.0803 4.15909 83.5916 4.15909C84.2659 4.15909 84.8738 4.33144 85.4155 4.67614C85.9609 5.01705 86.3928 5.52273 86.7109 6.19318C87.0329 6.85985 87.1939 7.67803 87.1939 8.64773C87.1939 9.60606 87.0367 10.4205 86.7223 11.0909C86.4079 11.7614 85.9799 12.2727 85.4382 12.625C84.8965 12.9773 84.2829 13.1534 83.5973 13.1534C83.0973 13.1534 82.6825 13.0701 82.353 12.9034C82.0234 12.7367 81.7583 12.536 81.5575 12.3011C81.3606 12.0625 81.2071 11.8371 81.0973 11.625H81.0121V16.2727H78.9553ZM80.9723 8.63636C80.9723 9.20076 81.0518 9.69508 81.2109 10.1193C81.3738 10.5436 81.6068 10.875 81.9098 11.1136C82.2166 11.3485 82.5878 11.4659 83.0234 11.4659C83.478 11.4659 83.8587 11.3447 84.1655 11.1023C84.4723 10.8561 84.7034 10.5208 84.8587 10.0966C85.0178 9.66856 85.0973 9.18182 85.0973 8.63636C85.0973 8.0947 85.0196 7.61364 84.8643 7.19318C84.709 6.77273 84.478 6.44318 84.1712 6.20455C83.8643 5.96591 83.4818 5.84659 83.0234 5.84659C82.584 5.84659 82.2109 5.96212 81.9041 6.19318C81.5973 6.42424 81.3643 6.74811 81.2053 7.16477C81.05 7.58144 80.9723 8.07197 80.9723 8.63636ZM91.0121 1.36364V13H88.9553V1.36364H91.0121ZM96.9339 13.1705C96.0817 13.1705 95.343 12.983 94.718 12.608C94.093 12.233 93.6082 11.7083 93.2635 11.0341C92.9226 10.3598 92.7521 9.57197 92.7521 8.67045C92.7521 7.76894 92.9226 6.97917 93.2635 6.30114C93.6082 5.62311 94.093 5.09659 94.718 4.72159C95.343 4.34659 96.0817 4.15909 96.9339 4.15909C97.7862 4.15909 98.5249 4.34659 99.1499 4.72159C99.7749 5.09659 100.258 5.62311 100.599 6.30114C100.943 6.97917 101.116 7.76894 101.116 8.67045C101.116 9.57197 100.943 10.3598 100.599 11.0341C100.258 11.7083 99.7749 12.233 99.1499 12.608C98.5249 12.983 97.7862 13.1705 96.9339 13.1705ZM96.9453 11.5227C97.4074 11.5227 97.7938 11.3958 98.1044 11.142C98.415 10.8845 98.6461 10.5398 98.7976 10.108C98.9529 9.67614 99.0305 9.19508 99.0305 8.66477C99.0305 8.13068 98.9529 7.64773 98.7976 7.21591C98.6461 6.7803 98.415 6.43371 98.1044 6.17614C97.7938 5.91856 97.4074 5.78977 96.9453 5.78977C96.4718 5.78977 96.0779 5.91856 95.7635 6.17614C95.4529 6.43371 95.2199 6.7803 95.0646 7.21591C94.9131 7.64773 94.8374 8.13068 94.8374 8.66477C94.8374 9.19508 94.9131 9.67614 95.0646 10.108C95.2199 10.5398 95.4529 10.8845 95.7635 11.142C96.0779 11.3958 96.4718 11.5227 96.9453 11.5227ZM105.373 13.1761C104.82 13.1761 104.322 13.0777 103.879 12.8807C103.439 12.6799 103.091 12.3845 102.833 11.9943C102.579 11.6042 102.452 11.1231 102.452 10.5511C102.452 10.0587 102.543 9.65152 102.725 9.32955C102.907 9.00758 103.155 8.75 103.469 8.55682C103.784 8.36364 104.138 8.2178 104.532 8.11932C104.93 8.01705 105.341 7.94318 105.765 7.89773C106.276 7.8447 106.691 7.79735 107.009 7.75568C107.327 7.71023 107.558 7.64205 107.702 7.55114C107.85 7.45644 107.924 7.31061 107.924 7.11364V7.07955C107.924 6.65152 107.797 6.32008 107.543 6.08523C107.29 5.85038 106.924 5.73295 106.447 5.73295C105.943 5.73295 105.543 5.8428 105.248 6.0625C104.956 6.2822 104.759 6.54167 104.657 6.84091L102.737 6.56818C102.888 6.03788 103.138 5.5947 103.487 5.23864C103.835 4.87879 104.261 4.60985 104.765 4.43182C105.269 4.25 105.826 4.15909 106.435 4.15909C106.856 4.15909 107.274 4.20833 107.691 4.30682C108.108 4.4053 108.488 4.56818 108.833 4.79545C109.178 5.01894 109.454 5.32386 109.663 5.71023C109.875 6.09659 109.981 6.57955 109.981 7.15909V13H108.004V11.8011H107.935C107.81 12.0436 107.634 12.2708 107.407 12.483C107.183 12.6913 106.901 12.8598 106.56 12.9886C106.223 13.1136 105.827 13.1761 105.373 13.1761ZM105.907 11.6648C106.32 11.6648 106.678 11.5833 106.981 11.4205C107.284 11.2538 107.517 11.0341 107.68 10.7614C107.846 10.4886 107.93 10.1913 107.93 9.86932V8.84091C107.865 8.89394 107.755 8.94318 107.6 8.98864C107.449 9.03409 107.278 9.07386 107.089 9.10795C106.899 9.14205 106.712 9.17235 106.526 9.19886C106.341 9.22538 106.18 9.24811 106.043 9.26705C105.737 9.30871 105.462 9.37689 105.219 9.47159C104.977 9.56629 104.786 9.69886 104.646 9.86932C104.505 10.036 104.435 10.2519 104.435 10.517C104.435 10.8958 104.574 11.1818 104.85 11.375C105.127 11.5682 105.479 11.6648 105.907 11.6648ZM115.288 13.1534C114.602 13.1534 113.988 12.9773 113.447 12.625C112.905 12.2727 112.477 11.7614 112.163 11.0909C111.848 10.4205 111.691 9.60606 111.691 8.64773C111.691 7.67803 111.85 6.85985 112.168 6.19318C112.49 5.52273 112.924 5.01705 113.469 4.67614C114.015 4.33144 114.623 4.15909 115.293 4.15909C115.805 4.15909 116.225 4.24621 116.555 4.42045C116.884 4.59091 117.146 4.79735 117.339 5.03977C117.532 5.27841 117.682 5.50379 117.788 5.71591H117.873V1.36364H119.935V13H117.913V11.625H117.788C117.682 11.8371 117.528 12.0625 117.327 12.3011C117.127 12.536 116.862 12.7367 116.532 12.9034C116.202 13.0701 115.788 13.1534 115.288 13.1534ZM115.862 11.4659C116.297 11.4659 116.668 11.3485 116.975 11.1136C117.282 10.875 117.515 10.5436 117.674 10.1193C117.833 9.69508 117.913 9.20076 117.913 8.63636C117.913 8.07197 117.833 7.58144 117.674 7.16477C117.519 6.74811 117.288 6.42424 116.981 6.19318C116.678 5.96212 116.305 5.84659 115.862 5.84659C115.403 5.84659 115.021 5.96591 114.714 6.20455C114.407 6.44318 114.176 6.77273 114.021 7.19318C113.865 7.61364 113.788 8.0947 113.788 8.63636C113.788 9.18182 113.865 9.66856 114.021 10.0966C114.18 10.5208 114.413 10.8561 114.719 11.1023C115.03 11.3447 115.411 11.4659 115.862 11.4659Z" fill="#164C96"/>
<path d="M4.82741 37.1818C4.03954 37.1818 3.34825 36.9943 2.75355 36.6193C2.16264 36.2443 1.70052 35.7197 1.36719 35.0455C1.03764 34.3712 0.872869 33.5833 0.872869 32.6818C0.872869 31.7727 1.03764 30.9792 1.36719 30.3011C1.70052 29.6231 2.16264 29.0966 2.75355 28.7216C3.34825 28.3466 4.03954 28.1591 4.82741 28.1591C5.61529 28.1591 6.30469 28.3466 6.8956 28.7216C7.49029 29.0966 7.95242 29.6231 8.28196 30.3011C8.61529 30.9792 8.78196 31.7727 8.78196 32.6818C8.78196 33.5833 8.61529 34.3712 8.28196 35.0455C7.95242 35.7197 7.49029 36.2443 6.8956 36.6193C6.30469 36.9943 5.61529 37.1818 4.82741 37.1818ZM4.82741 35.9773C5.4259 35.9773 5.91832 35.8239 6.30469 35.517C6.69105 35.2102 6.97704 34.8068 7.16264 34.3068C7.34825 33.8068 7.44105 33.2652 7.44105 32.6818C7.44105 32.0985 7.34825 31.5549 7.16264 31.0511C6.97704 30.5473 6.69105 30.1402 6.30469 29.8295C5.91832 29.5189 5.4259 29.3636 4.82741 29.3636C4.22893 29.3636 3.73651 29.5189 3.35014 29.8295C2.96378 30.1402 2.67779 30.5473 2.49219 31.0511C2.30658 31.5549 2.21378 32.0985 2.21378 32.6818C2.21378 33.2652 2.30658 33.8068 2.49219 34.3068C2.67779 34.8068 2.96378 35.2102 3.35014 35.517C3.73651 35.8239 4.22893 35.9773 4.82741 35.9773ZM10.8288 37V28.2727H12.1243V29.5909H12.2152C12.3743 29.1591 12.6622 28.8087 13.0788 28.5398C13.4955 28.2708 13.9652 28.1364 14.4879 28.1364C14.5864 28.1364 14.7095 28.1383 14.8572 28.142C15.005 28.1458 15.1167 28.1515 15.1925 28.1591V29.5227C15.147 29.5114 15.0429 29.4943 14.88 29.4716C14.7209 29.4451 14.5523 29.4318 14.3743 29.4318C13.95 29.4318 13.5713 29.5208 13.2379 29.6989C12.9084 29.8731 12.647 30.1155 12.4538 30.4261C12.2644 30.733 12.1697 31.0833 12.1697 31.4773V37H10.8288ZM24.5774 37.1818C23.8501 37.1818 23.2081 36.9981 22.6513 36.6307C22.0945 36.2595 21.6589 35.7367 21.3445 35.0625C21.0301 34.3845 20.8729 33.5833 20.8729 32.6591C20.8729 31.7424 21.0301 30.947 21.3445 30.2727C21.6589 29.5985 22.0964 29.0777 22.657 28.7102C23.2176 28.3428 23.8653 28.1591 24.6001 28.1591C25.1683 28.1591 25.6172 28.2538 25.9467 28.4432C26.2801 28.6288 26.5339 28.8409 26.7081 29.0795C26.8861 29.3144 27.0244 29.5076 27.1229 29.6591H27.2365V25.3636H28.5774V37H27.282V35.6591H27.1229C27.0244 35.8182 26.8842 36.0189 26.7024 36.2614C26.5206 36.5 26.2611 36.714 25.924 36.9034C25.5869 37.089 25.138 37.1818 24.5774 37.1818ZM24.7592 35.9773C25.2971 35.9773 25.7517 35.8371 26.1229 35.5568C26.4941 35.2727 26.7763 34.8807 26.9695 34.3807C27.1626 33.8769 27.2592 33.2955 27.2592 32.6364C27.2592 31.9848 27.1645 31.4148 26.9751 30.9261C26.7857 30.4337 26.5054 30.0511 26.1342 29.7784C25.763 29.5019 25.3047 29.3636 24.7592 29.3636C24.1911 29.3636 23.7176 29.5095 23.3388 29.8011C22.9638 30.089 22.6816 30.4811 22.4922 30.9773C22.3066 31.4697 22.2138 32.0227 22.2138 32.6364C22.2138 33.2576 22.3085 33.822 22.4979 34.3295C22.6911 34.8333 22.9751 35.2348 23.3501 35.5341C23.7289 35.8295 24.1986 35.9773 24.7592 35.9773ZM31.2195 37V28.2727H32.5149V29.5909H32.6058C32.7649 29.1591 33.0528 28.8087 33.4695 28.5398C33.8861 28.2708 34.3558 28.1364 34.8786 28.1364C34.977 28.1364 35.1001 28.1383 35.2479 28.142C35.3956 28.1458 35.5073 28.1515 35.5831 28.1591V29.5227C35.5376 29.5114 35.4335 29.4943 35.2706 29.4716C35.1115 29.4451 34.9429 29.4318 34.7649 29.4318C34.3407 29.4318 33.9619 29.5208 33.6286 29.6989C33.299 29.8731 33.0376 30.1155 32.8445 30.4261C32.6551 30.733 32.5604 31.0833 32.5604 31.4773V37H31.2195ZM39.7408 37.2045C39.1877 37.2045 38.6858 37.1004 38.2351 36.892C37.7843 36.6799 37.4264 36.375 37.1612 35.9773C36.8961 35.5758 36.7635 35.0909 36.7635 34.5227C36.7635 34.0227 36.862 33.6174 37.0589 33.3068C37.2559 32.9924 37.5192 32.7462 37.8487 32.5682C38.1783 32.3902 38.5419 32.2576 38.9396 32.1705C39.3411 32.0795 39.7446 32.0076 40.1499 31.9545C40.6802 31.8864 41.1101 31.8352 41.4396 31.8011C41.773 31.7633 42.0154 31.7008 42.1669 31.6136C42.3222 31.5265 42.3999 31.375 42.3999 31.1591V31.1136C42.3999 30.553 42.2464 30.1174 41.9396 29.8068C41.6366 29.4962 41.1764 29.3409 40.5589 29.3409C39.9188 29.3409 39.4169 29.4811 39.0533 29.7614C38.6896 30.0417 38.4339 30.3409 38.2862 30.6591L37.0135 30.2045C37.2408 29.6742 37.5438 29.2614 37.9226 28.9659C38.3052 28.6667 38.7218 28.4583 39.1726 28.3409C39.6271 28.2197 40.0741 28.1591 40.5135 28.1591C40.7938 28.1591 41.1158 28.1932 41.4794 28.2614C41.8468 28.3258 42.201 28.4602 42.5419 28.6648C42.8866 28.8693 43.1726 29.178 43.3999 29.5909C43.6271 30.0038 43.7408 30.5568 43.7408 31.25V37H42.3999V35.8182H42.3317C42.2408 36.0076 42.0893 36.2102 41.8771 36.4261C41.665 36.642 41.3828 36.8258 41.0305 36.9773C40.6783 37.1288 40.2483 37.2045 39.7408 37.2045ZM39.9453 36C40.4756 36 40.9226 35.8958 41.2862 35.6875C41.6536 35.4792 41.9302 35.2102 42.1158 34.8807C42.3052 34.5511 42.3999 34.2045 42.3999 33.8409V32.6136C42.343 32.6818 42.218 32.7443 42.0249 32.8011C41.8355 32.8542 41.6158 32.9015 41.3658 32.9432C41.1196 32.9811 40.879 33.0152 40.6442 33.0455C40.4131 33.072 40.2256 33.0947 40.0817 33.1136C39.7332 33.1591 39.4074 33.233 39.1044 33.3352C38.8052 33.4337 38.5627 33.5833 38.3771 33.7841C38.1953 33.9811 38.1044 34.25 38.1044 34.5909C38.1044 35.0568 38.2768 35.4091 38.6214 35.6477C38.9699 35.8826 39.4112 36 39.9453 36ZM49.7109 40.4545C49.0632 40.4545 48.5064 40.3712 48.0405 40.2045C47.5746 40.0417 47.1863 39.8258 46.8757 39.5568C46.5689 39.2917 46.3246 39.0076 46.1428 38.7045L47.2109 37.9545C47.3321 38.1136 47.4856 38.2955 47.6712 38.5C47.8568 38.7083 48.1106 38.8883 48.4325 39.0398C48.7583 39.1951 49.1844 39.2727 49.7109 39.2727C50.4155 39.2727 50.9969 39.1023 51.4553 38.7614C51.9136 38.4205 52.1428 37.8864 52.1428 37.1591V35.3864H52.0291C51.9306 35.5455 51.7905 35.7424 51.6087 35.9773C51.4306 36.2083 51.1731 36.4148 50.8359 36.5966C50.5026 36.7746 50.0518 36.8636 49.4837 36.8636C48.7791 36.8636 48.1465 36.697 47.5859 36.3636C47.0291 36.0303 46.5878 35.5455 46.2621 34.9091C45.9401 34.2727 45.7791 33.5 45.7791 32.5909C45.7791 31.697 45.9363 30.9186 46.2507 30.2557C46.5651 29.589 47.0026 29.0739 47.5632 28.7102C48.1238 28.3428 48.7715 28.1591 49.5064 28.1591C50.0746 28.1591 50.5253 28.2538 50.8587 28.4432C51.1958 28.6288 51.4534 28.8409 51.6314 29.0795C51.8132 29.3144 51.9534 29.5076 52.0518 29.6591H52.1882V28.2727H53.4837V37.25C53.4837 38 53.3132 38.6098 52.9723 39.0795C52.6352 39.553 52.1806 39.8996 51.6087 40.1193C51.0405 40.3428 50.4079 40.4545 49.7109 40.4545ZM49.6655 35.6591C50.2034 35.6591 50.6579 35.536 51.0291 35.2898C51.4003 35.0436 51.6825 34.6894 51.8757 34.2273C52.0689 33.7652 52.1655 33.2121 52.1655 32.5682C52.1655 31.9394 52.0708 31.3845 51.8814 30.9034C51.692 30.4223 51.4117 30.0455 51.0405 29.7727C50.6693 29.5 50.2109 29.3636 49.6655 29.3636C49.0973 29.3636 48.6238 29.5076 48.245 29.7955C47.87 30.0833 47.5878 30.4697 47.3984 30.9545C47.2128 31.4394 47.12 31.9773 47.12 32.5682C47.12 33.1742 47.2147 33.7102 47.4041 34.1761C47.5973 34.6383 47.8814 35.0019 48.2564 35.267C48.6352 35.5284 49.1049 35.6591 49.6655 35.6591ZM63.0064 37.2045C62.4534 37.2045 61.9515 37.1004 61.5007 36.892C61.05 36.6799 60.692 36.375 60.4268 35.9773C60.1617 35.5758 60.0291 35.0909 60.0291 34.5227C60.0291 34.0227 60.1276 33.6174 60.3246 33.3068C60.5215 32.9924 60.7848 32.7462 61.1143 32.5682C61.4439 32.3902 61.8075 32.2576 62.2053 32.1705C62.6068 32.0795 63.0102 32.0076 63.4155 31.9545C63.9458 31.8864 64.3757 31.8352 64.7053 31.8011C65.0386 31.7633 65.281 31.7008 65.4325 31.6136C65.5878 31.5265 65.6655 31.375 65.6655 31.1591V31.1136C65.6655 30.553 65.5121 30.1174 65.2053 29.8068C64.9022 29.4962 64.442 29.3409 63.8246 29.3409C63.1844 29.3409 62.6825 29.4811 62.3189 29.7614C61.9553 30.0417 61.6996 30.3409 61.5518 30.6591L60.2791 30.2045C60.5064 29.6742 60.8094 29.2614 61.1882 28.9659C61.5708 28.6667 61.9875 28.4583 62.4382 28.3409C62.8928 28.2197 63.3397 28.1591 63.7791 28.1591C64.0594 28.1591 64.3814 28.1932 64.745 28.2614C65.1125 28.3258 65.4666 28.4602 65.8075 28.6648C66.1522 28.8693 66.4382 29.178 66.6655 29.5909C66.8928 30.0038 67.0064 30.5568 67.0064 31.25V37H65.6655V35.8182H65.5973C65.5064 36.0076 65.3549 36.2102 65.1428 36.4261C64.9306 36.642 64.6484 36.8258 64.2962 36.9773C63.9439 37.1288 63.514 37.2045 63.0064 37.2045ZM63.2109 36C63.7412 36 64.1882 35.8958 64.5518 35.6875C64.9193 35.4792 65.1958 35.2102 65.3814 34.8807C65.5708 34.5511 65.6655 34.2045 65.6655 33.8409V32.6136C65.6087 32.6818 65.4837 32.7443 65.2905 32.8011C65.1011 32.8542 64.8814 32.9015 64.6314 32.9432C64.3852 32.9811 64.1446 33.0152 63.9098 33.0455C63.6787 33.072 63.4912 33.0947 63.3473 33.1136C62.9988 33.1591 62.6731 33.233 62.37 33.3352C62.0708 33.4337 61.8284 33.5833 61.6428 33.7841C61.4609 33.9811 61.37 34.25 61.37 34.5909C61.37 35.0568 61.5424 35.4091 61.8871 35.6477C62.2356 35.8826 62.6768 36 63.2109 36ZM70.7947 31.75V37H69.4538V28.2727H70.7493V29.6364H70.8629C71.0675 29.1932 71.3781 28.8371 71.7947 28.5682C72.2114 28.2955 72.7493 28.1591 73.4084 28.1591C73.9993 28.1591 74.5163 28.2803 74.9595 28.5227C75.4027 28.7614 75.7474 29.125 75.9936 29.6136C76.2398 30.0985 76.3629 30.7121 76.3629 31.4545V37H75.022V31.5455C75.022 30.8598 74.844 30.3258 74.4879 29.9432C74.1319 29.5568 73.6432 29.3636 73.022 29.3636C72.594 29.3636 72.2114 29.4564 71.8743 29.642C71.541 29.8277 71.2777 30.0985 71.0845 30.4545C70.8913 30.8106 70.7947 31.2424 70.7947 31.75ZM82.1087 37.1818C81.3814 37.1818 80.7393 36.9981 80.1825 36.6307C79.6257 36.2595 79.1901 35.7367 78.8757 35.0625C78.5613 34.3845 78.4041 33.5833 78.4041 32.6591C78.4041 31.7424 78.5613 30.947 78.8757 30.2727C79.1901 29.5985 79.6276 29.0777 80.1882 28.7102C80.7488 28.3428 81.3965 28.1591 82.1314 28.1591C82.6996 28.1591 83.1484 28.2538 83.478 28.4432C83.8113 28.6288 84.0651 28.8409 84.2393 29.0795C84.4174 29.3144 84.5556 29.5076 84.6541 29.6591H84.7678V25.3636H86.1087V37H84.8132V35.6591H84.6541C84.5556 35.8182 84.4155 36.0189 84.2337 36.2614C84.0518 36.5 83.7924 36.714 83.4553 36.9034C83.1181 37.089 82.6693 37.1818 82.1087 37.1818ZM82.2905 35.9773C82.8284 35.9773 83.2829 35.8371 83.6541 35.5568C84.0253 35.2727 84.3075 34.8807 84.5007 34.3807C84.6939 33.8769 84.7905 33.2955 84.7905 32.6364C84.7905 31.9848 84.6958 31.4148 84.5064 30.9261C84.317 30.4337 84.0367 30.0511 83.6655 29.7784C83.2943 29.5019 82.8359 29.3636 82.2905 29.3636C81.7223 29.3636 81.2488 29.5095 80.87 29.8011C80.495 30.089 80.2128 30.4811 80.0234 30.9773C79.8378 31.4697 79.745 32.0227 79.745 32.6364C79.745 33.2576 79.8397 33.822 80.0291 34.3295C80.2223 34.8333 80.5064 35.2348 80.8814 35.5341C81.2602 35.8295 81.7299 35.9773 82.2905 35.9773ZM96.5462 37.1818C95.8189 37.1818 95.1768 36.9981 94.62 36.6307C94.0632 36.2595 93.6276 35.7367 93.3132 35.0625C92.9988 34.3845 92.8416 33.5833 92.8416 32.6591C92.8416 31.7424 92.9988 30.947 93.3132 30.2727C93.6276 29.5985 94.0651 29.0777 94.6257 28.7102C95.1863 28.3428 95.834 28.1591 96.5689 28.1591C97.1371 28.1591 97.5859 28.2538 97.9155 28.4432C98.2488 28.6288 98.5026 28.8409 98.6768 29.0795C98.8549 29.3144 98.9931 29.5076 99.0916 29.6591H99.2053V25.3636H100.546V37H99.2507V35.6591H99.0916C98.9931 35.8182 98.853 36.0189 98.6712 36.2614C98.4893 36.5 98.2299 36.714 97.8928 36.9034C97.5556 37.089 97.1068 37.1818 96.5462 37.1818ZM96.728 35.9773C97.2659 35.9773 97.7204 35.8371 98.0916 35.5568C98.4628 35.2727 98.745 34.8807 98.9382 34.3807C99.1314 33.8769 99.228 33.2955 99.228 32.6364C99.228 31.9848 99.1333 31.4148 98.9439 30.9261C98.7545 30.4337 98.4742 30.0511 98.103 29.7784C97.7318 29.5019 97.2734 29.3636 96.728 29.3636C96.1598 29.3636 95.6863 29.5095 95.3075 29.8011C94.9325 30.089 94.6503 30.4811 94.4609 30.9773C94.2753 31.4697 94.1825 32.0227 94.1825 32.6364C94.1825 33.2576 94.2772 33.822 94.4666 34.3295C94.6598 34.8333 94.9439 35.2348 95.3189 35.5341C95.6977 35.8295 96.1674 35.9773 96.728 35.9773ZM103.188 37V28.2727H104.484V29.5909H104.575C104.734 29.1591 105.022 28.8087 105.438 28.5398C105.855 28.2708 106.325 28.1364 106.847 28.1364C106.946 28.1364 107.069 28.1383 107.217 28.142C107.364 28.1458 107.476 28.1515 107.552 28.1591V29.5227C107.506 29.5114 107.402 29.4943 107.239 29.4716C107.08 29.4451 106.912 29.4318 106.734 29.4318C106.309 29.4318 105.931 29.5208 105.597 29.6989C105.268 29.8731 105.006 30.1155 104.813 30.4261C104.624 30.733 104.529 31.0833 104.529 31.4773V37H103.188ZM112.421 37.1818C111.633 37.1818 110.942 36.9943 110.347 36.6193C109.756 36.2443 109.294 35.7197 108.961 35.0455C108.631 34.3712 108.467 33.5833 108.467 32.6818C108.467 31.7727 108.631 30.9792 108.961 30.3011C109.294 29.6231 109.756 29.0966 110.347 28.7216C110.942 28.3466 111.633 28.1591 112.421 28.1591C113.209 28.1591 113.898 28.3466 114.489 28.7216C115.084 29.0966 115.546 29.6231 115.876 30.3011C116.209 30.9792 116.376 31.7727 116.376 32.6818C116.376 33.5833 116.209 34.3712 115.876 35.0455C115.546 35.7197 115.084 36.2443 114.489 36.6193C113.898 36.9943 113.209 37.1818 112.421 37.1818ZM112.421 35.9773C113.02 35.9773 113.512 35.8239 113.898 35.517C114.285 35.2102 114.571 34.8068 114.756 34.3068C114.942 33.8068 115.035 33.2652 115.035 32.6818C115.035 32.0985 114.942 31.5549 114.756 31.0511C114.571 30.5473 114.285 30.1402 113.898 29.8295C113.512 29.5189 113.02 29.3636 112.421 29.3636C111.823 29.3636 111.33 29.5189 110.944 29.8295C110.558 30.1402 110.272 30.5473 110.086 31.0511C109.9 31.5549 109.808 32.0985 109.808 32.6818C109.808 33.2652 109.9 33.8068 110.086 34.3068C110.272 34.8068 110.558 35.2102 110.944 35.517C111.33 35.8239 111.823 35.9773 112.421 35.9773ZM118.423 40.2727V28.2727H119.718V29.6591H119.877C119.976 29.5076 120.112 29.3144 120.286 29.0795C120.464 28.8409 120.718 28.6288 121.048 28.4432C121.381 28.2538 121.832 28.1591 122.4 28.1591C123.135 28.1591 123.782 28.3428 124.343 28.7102C124.904 29.0777 125.341 29.5985 125.656 30.2727C125.97 30.947 126.127 31.7424 126.127 32.6591C126.127 33.5833 125.97 34.3845 125.656 35.0625C125.341 35.7367 124.906 36.2595 124.349 36.6307C123.792 36.9981 123.15 37.1818 122.423 37.1818C121.862 37.1818 121.413 37.089 121.076 36.9034C120.739 36.714 120.479 36.5 120.298 36.2614C120.116 36.0189 119.976 35.8182 119.877 35.6591H119.763V40.2727H118.423ZM119.741 32.6364C119.741 33.2955 119.837 33.8769 120.031 34.3807C120.224 34.8807 120.506 35.2727 120.877 35.5568C121.248 35.8371 121.703 35.9773 122.241 35.9773C122.801 35.9773 123.269 35.8295 123.644 35.5341C124.023 35.2348 124.307 34.8333 124.496 34.3295C124.69 33.822 124.786 33.2576 124.786 32.6364C124.786 32.0227 124.692 31.4697 124.502 30.9773C124.317 30.4811 124.034 30.089 123.656 29.8011C123.281 29.5095 122.809 29.3636 122.241 29.3636C121.695 29.3636 121.237 29.5019 120.866 29.7784C120.495 30.0511 120.214 30.4337 120.025 30.9261C119.835 31.4148 119.741 31.9848 119.741 32.6364Z" fill="#667085"/>
</svg>
